<svg xmlns="http://www.w3.org/2000/svg" xmlns:svg="http://www.w3.org/2000/svg" id="Calque_1" width="330.005" height="330.005" data-name="Calque 1" version="1.1" viewBox="0 0 330.005 330.005"><metadata id="metadata17"/><defs id="defs4"><style id="style2">.cls-2{fill:#268380}.cls-3{fill:#f8e14b}</style></defs><title id="title6">BLEU-proposition-icone</title><path id="path10" d="m 165.005,320 c -85.47,0 -155,-69.53 -155,-155 0,-85.47 69.53,-155 155,-155 85.47,0 155,69.53 155,155 0,85.47 -69.53,155 -155,155 z m 0,-275.49 A 120.49,120.49 0 1 0 285.495,165 120.62,120.62 0 0 0 165.005,44.51 Z" class="cls-2" style="fill:#bbb;fill-opacity:1"/><path id="path12" d="m 165.005,320 c -85.47,0 -155,-69.53 -155,-155 a 17.26,17.26 0 1 1 34.51,0 120.62,120.62 0 0 0 120.49,120.49 17.26,17.26 0 1 1 0,34.51 z" class="cls-3" style="fill:#d97d24;fill-opacity:1"/></svg>